<?xml version="1.0" encoding="UTF-8" standalone="no"?>
<svg
   xmlns:dc="http://purl.org/dc/elements/1.1/"
   xmlns:cc="http://creativecommons.org/ns#"
   xmlns:rdf="http://www.w3.org/1999/02/22-rdf-syntax-ns#"
   xmlns:svg="http://www.w3.org/2000/svg"
   xmlns="http://www.w3.org/2000/svg"
   xmlns:sodipodi="http://sodipodi.sourceforge.net/DTD/sodipodi-0.dtd"
   xmlns:inkscape="http://www.inkscape.org/namespaces/inkscape"
   width="69"
   height="24"
   viewBox="0 0 18.256249 6.35"
   version="1.1"
   id="svg77"
   inkscape:version="1.0.2 (e86c870879, 2021-01-15)"
   sodipodi:docname="logo-nsh-white.svg">
  <defs
     id="defs71" />
  <sodipodi:namedview
     id="base"
     pagecolor="#ffffff"
     bordercolor="#666666"
     borderopacity="1.0"
     inkscape:pageopacity="0.0"
     inkscape:pageshadow="2"
     inkscape:zoom="7.9195959"
     inkscape:cx="37.622454"
     inkscape:cy="28.466373"
     inkscape:document-units="px"
     inkscape:current-layer="g121"
     inkscape:document-rotation="0"
     showgrid="false"
     units="px"
     inkscape:window-width="1366"
     inkscape:window-height="717"
     inkscape:window-x="0"
     inkscape:window-y="27"
     inkscape:window-maximized="1" />
  <metadata
     id="metadata74">
    <rdf:RDF>
      <cc:Work
         rdf:about="">
        <dc:format>image/svg+xml</dc:format>
        <dc:type
           rdf:resource="http://purl.org/dc/dcmitype/StillImage" />
        <dc:title></dc:title>
      </cc:Work>
    </rdf:RDF>
  </metadata>
  <g
     inkscape:label="Layer 1"
     inkscape:groupmode="layer"
     id="layer1">
    <g
       id="g121"
       transform="matrix(0.27275516,0,0,0.27275516,-10.309888,-28.45005)">
      <path
         id="path1319"
         style="color:#000000;font-style:normal;font-variant:normal;font-weight:normal;font-stretch:normal;font-size:medium;line-height:normal;font-family:sans-serif;font-variant-ligatures:normal;font-variant-position:normal;font-variant-caps:normal;font-variant-numeric:normal;font-variant-alternates:normal;font-variant-east-asian:normal;font-feature-settings:normal;font-variation-settings:normal;text-indent:0;text-align:start;text-decoration:none;text-decoration-line:none;text-decoration-style:solid;text-decoration-color:#000000;letter-spacing:normal;word-spacing:normal;text-transform:none;writing-mode:lr-tb;direction:ltr;text-orientation:mixed;dominant-baseline:auto;baseline-shift:baseline;text-anchor:start;white-space:normal;shape-padding:0;shape-margin:0;inline-size:0;clip-rule:nonzero;display:inline;overflow:visible;visibility:visible;isolation:auto;mix-blend-mode:normal;color-interpolation:sRGB;color-interpolation-filters:linearRGB;solid-color:#000000;solid-opacity:1;vector-effect:none;fill:#ffffff;fill-opacity:0.975802;fill-rule:nonzero;stroke:none;stroke-width:0.515441;stroke-linecap:round;stroke-linejoin:round;stroke-miterlimit:4;stroke-dasharray:none;stroke-dashoffset:0;stroke-opacity:1;color-rendering:auto;image-rendering:auto;shape-rendering:auto;text-rendering:auto;enable-background:accumulate;stop-color:#000000"
         sodipodi:type="inkscape:offset"
         inkscape:radius="-1.4614592"
         inkscape:original="M 12.560547 0 A 3.629233 3.6291936 0 0 0 10.011719 1.0410156 L 8.3574219 2.6679688 L 1.4863281 9.421875 A 3.629596 3.6295565 0 0 0 1.0136719 9.9902344 C 1.0120719 9.9926144 1.0113656 9.9956669 1.0097656 9.9980469 A 3.629596 3.6295565 0 0 0 0.68359375 10.607422 A 3.629596 3.6295565 0 0 0 0.68164062 10.613281 C 0.67515863 10.628831 0.6703183 10.644546 0.6640625 10.660156 A 3.629596 3.6295565 0 0 0 0.47265625 11.294922 C 0.47082125 11.304122 0.46855987 11.313086 0.46679688 11.322266 A 3.629596 3.6295565 0 0 0 0.40039062 12.005859 L 0.40039062 12.007812 A 3.629596 3.6295565 0 0 0 0.40039062 12.011719 A 3.629596 3.6295565 0 0 0 0.46875 12.703125 C 0.46962831 12.707625 0.46980712 12.712227 0.47070312 12.716797 A 3.629596 3.6295565 0 0 0 0.66796875 13.371094 C 0.67194575 13.380894 0.6756207 13.390581 0.6796875 13.400391 A 3.629596 3.6295565 0 0 0 1.0019531 14.007812 C 1.0089531 14.018403 1.0163105 14.028533 1.0234375 14.039062 A 3.629596 3.6295565 0 0 0 1.484375 14.595703 L 9.9785156 22.957031 A 3.629233 3.6291936 0 0 0 10.537109 23.404297 C 10.548489 23.411797 10.558872 23.420394 10.570312 23.427734 A 3.629233 3.6291936 0 0 0 11.177734 23.740234 C 11.184234 23.742834 11.190726 23.745447 11.197266 23.748047 A 3.629233 3.6291936 0 0 0 11.847656 23.935547 C 11.858106 23.937547 11.868446 23.939506 11.878906 23.941406 A 3.629233 3.6291936 0 0 0 12.548828 24 A 3.629233 3.6291936 0 0 0 12.558594 24 A 3.629233 3.6291936 0 0 0 13.236328 23.929688 A 3.629233 3.6291936 0 0 0 13.246094 23.927734 C 13.250094 23.926923 13.253793 23.924628 13.257812 23.923828 A 3.629233 3.6291936 0 0 0 13.904297 23.726562 C 13.912697 23.723063 13.921298 23.720397 13.929688 23.716797 A 3.629233 3.6291936 0 0 0 14.546875 23.384766 A 3.629233 3.6291936 0 0 0 15.101562 22.925781 A 3.629233 3.6291936 0 0 0 15.111328 22.916016 L 15.113281 22.916016 C 15.117281 22.911916 15.119047 22.906414 15.123047 22.902344 A 3.629233 3.6291936 0 0 0 15.5625 22.355469 C 15.568 22.347069 15.572705 22.338498 15.578125 22.330078 A 3.629233 3.6291936 0 0 0 15.896484 21.716797 A 3.629233 3.6291936 0 0 0 15.900391 21.708984 C 15.902191 21.704584 15.902597 21.699782 15.904297 21.695312 A 3.629233 3.6291936 0 0 0 16.091797 21.042969 A 3.629233 3.6291936 0 0 0 16.09375 21.035156 C 16.094225 21.032556 16.093281 21.029844 16.09375 21.027344 A 3.629233 3.6291936 0 0 0 16.154297 20.347656 A 3.629233 3.6291936 0 0 0 16.154297 20.341797 C 16.154286 20.340497 16.154309 20.339191 16.154297 20.337891 A 3.629233 3.6291936 0 0 0 16.083984 19.658203 A 3.629233 3.6291936 0 0 0 16.082031 19.648438 C 16.081218 19.644437 16.078925 19.640739 16.078125 19.636719 A 3.629233 3.6291936 0 0 0 15.886719 19.003906 C 15.880619 18.988956 15.875421 18.973874 15.869141 18.958984 A 3.629233 3.6291936 0 0 0 15.544922 18.357422 A 3.629233 3.6291936 0 0 0 15.541016 18.349609 L 15.539062 18.347656 A 3.629233 3.6291936 0 0 0 15.537109 18.345703 A 3.629233 3.6291936 0 0 0 15.070312 17.783203 L 9.5703125 12.369141 C 9.5557595 12.356931 9.5437399 12.342388 9.5292969 12.330078 L 9.2050781 12.011719 L 15.099609 6.2167969 A 3.629233 3.6291936 0 0 0 15.142578 1.0859375 A 3.629233 3.6291936 0 0 0 12.560547 0 z M 56.814453 0 A 3.629233 3.6291936 0 0 0 56.164062 0.0703125 C 56.156762 0.0717598 56.149838 0.074679775 56.142578 0.076171875 A 3.629233 3.6291936 0 0 0 55.5 0.27148438 C 55.48891 0.27601837 55.477847 0.28050835 55.466797 0.28515625 A 3.629233 3.6291936 0 0 0 54.865234 0.609375 C 54.858134 0.614107 54.85082 0.61825897 54.84375 0.62304688 A 3.629233 3.6291936 0 0 0 54.289062 1.0839844 A 3.629233 3.6291936 0 0 0 53.847656 1.6328125 C 53.836426 1.6498045 53.825363 1.6664577 53.814453 1.6835938 A 3.629233 3.6291936 0 0 0 53.505859 2.2832031 C 53.503259 2.2897331 53.500647 2.2961904 53.498047 2.3027344 A 3.629233 3.6291936 0 0 0 53.314453 2.9375 C 53.310953 2.955788 53.307987 2.9738585 53.304688 2.9921875 A 3.629233 3.6291936 0 0 0 53.248047 3.6367188 C 53.248076 3.6504538 53.247863 3.6640004 53.248047 3.6777344 A 3.629233 3.6291936 0 0 0 53.316406 4.3398438 C 53.318406 4.3497737 53.322219 4.3592256 53.324219 4.3691406 A 3.629233 3.6291936 0 0 0 53.519531 5.0078125 C 53.523331 5.0170425 53.52743 5.0259512 53.53125 5.0351562 A 3.629233 3.6291936 0 0 0 53.861328 5.6503906 A 3.629233 3.6291936 0 0 0 53.861328 5.6523438 A 3.629233 3.6291936 0 0 0 54.330078 6.2167969 L 59.830078 11.630859 C 59.844628 11.643069 59.856644 11.657612 59.871094 11.669922 L 60.195312 11.988281 L 54.302734 17.783203 A 3.629233 3.6291936 0 0 0 54.257812 22.914062 A 3.629233 3.6291936 0 0 0 56.839844 24 A 3.629233 3.6291936 0 0 0 59.390625 22.958984 L 61.044922 21.332031 L 67.914062 14.578125 A 3.629596 3.6295565 0 0 0 68.386719 14.009766 A 3.629596 3.6295565 0 0 0 68.388672 14.005859 C 68.389492 14.004659 68.389725 14.003153 68.390625 14.001953 A 3.629596 3.6295565 0 0 0 68.726562 13.373047 A 3.629596 3.6295565 0 0 0 68.728516 13.369141 C 68.729516 13.366641 68.729399 13.363828 68.730469 13.361328 A 3.629596 3.6295565 0 0 0 68.927734 12.705078 C 68.929534 12.695878 68.931794 12.686914 68.933594 12.677734 A 3.629596 3.6295565 0 0 0 69 11.994141 A 3.629596 3.6295565 0 0 0 69 11.992188 L 69 11.988281 A 3.629596 3.6295565 0 0 0 68.931641 11.291016 A 3.629596 3.6295565 0 0 0 68.736328 10.634766 C 68.731428 10.622466 68.727726 10.609906 68.722656 10.597656 A 3.629596 3.6295565 0 0 0 68.392578 9.9785156 A 3.629596 3.6295565 0 0 0 68.390625 9.9765625 L 68.388672 9.9746094 A 3.629596 3.6295565 0 0 0 67.916016 9.4042969 L 59.421875 1.0429688 A 3.629233 3.6291936 0 0 0 58.871094 0.59960938 C 58.857314 0.59051537 58.843958 0.58115132 58.830078 0.57226562 A 3.629233 3.6291936 0 0 0 58.222656 0.25976562 A 3.629233 3.6291936 0 0 0 58.214844 0.25585938 C 58.211744 0.25463038 58.208178 0.25512602 58.205078 0.25390625 A 3.629233 3.6291936 0 0 0 57.554688 0.064453125 C 57.544227 0.062471925 57.533907 0.06048245 57.523438 0.05859375 A 3.629233 3.6291936 0 0 0 56.853516 0 A 3.629233 3.6291936 0 0 0 56.84375 0 A 3.629233 3.6291936 0 0 0 56.814453 0 z "
         d="m 12.558594,1.4609375 c -0.562257,-7.297e-4 -1.120513,0.2289092 -1.521485,0.6230469 v -0.00195 L 9.3828125,3.7089844 a 1.4616053,1.4616053 0 0 1 0,0.00195 L 2.5117188,10.464844 a 1.4616053,1.4616053 0 0 1 -0.00195,0.002 c -0.1030013,0.100894 -0.19638,0.210774 -0.2773437,0.330078 -0.00183,0.0027 -0.00404,0.0051 -0.00586,0.0078 -0.00312,0.0046 -6.882e-4,0.003 -0.00391,0.0078 -0.073061,0.11065 -0.1358503,0.229442 -0.1875,0.351562 a 1.4616053,1.4616053 0 0 1 -0.00195,0.0059 c -3.404e-4,8.11e-4 -0.00161,0.0011 -0.00195,0.002 a 1.4616053,1.4616053 0 0 1 0,0.0039 c 0.028648,-0.06873 0.025649,-0.06103 -0.00977,0.02734 a 1.4616053,1.4616053 0 0 1 -0.00195,0.0059 c -0.048559,0.120064 -0.0869,0.244298 -0.1132812,0.371094 -0.00384,0.01927 -4.371e-4,-0.0016 -0.00195,0.0059 -1.253e-4,6.11e-4 1.248e-4,0.0013 0,0.002 -0.00129,0.0061 -0.00674,0.0347 -0.00195,0.0098 a 1.4616053,1.4616053 0 0 1 0,0.002 c -0.025834,0.133185 -0.04049,0.270585 -0.041016,0.40625 v 0.002 c 1.8e-6,6.51e-4 -2.3e-6,0.0013 0,0.002 0,3.89e-4 -2e-7,0.0016 0,0.002 6.171e-4,0.13725 0.014501,0.273537 0.041016,0.408203 a 1.4616053,1.4616053 0 0 1 0,0.0039 c 0.029622,0.151766 0.029634,0.152904 0.00195,0.01172 v -0.0078 c 0.026879,0.133597 0.065742,0.266388 0.1171875,0.392578 a 1.4616053,1.4616053 0 0 1 0,0.002 c 0.0122,0.03006 0.014809,0.03445 0.00781,0.01758 0.052501,0.12667 0.1179102,0.248785 0.1933593,0.363281 -0.010385,-0.01576 -0.010367,-0.01505 0.011719,0.01758 a 1.4616053,1.4616053 0 0 1 0.00195,0.0039 c 0.079909,0.118858 0.1716911,0.229279 0.2734375,0.330079 l 8.4941404,8.361328 c 0.101002,0.09821 0.211964,0.186889 0.330078,0.263672 a 1.4616053,1.4616053 0 0 1 0.0078,0.0039 c 0.09196,0.06061 0.08445,0.05779 0.01563,0.01367 0.114717,0.07343 0.236835,0.134909 0.363281,0.185546 0.0051,0.002 0.0068,0.0027 0.0098,0.0039 0.125632,0.04932 0.256066,0.08815 0.388672,0.113281 a 1.4616053,1.4616053 0 0 1 0.0039,0 c 0.0087,0.0017 0.01429,0.0033 0.01758,0.0039 0.131919,0.02401 0.266307,0.0359 0.400391,0.03516 a 1.4616053,1.4616053 0 0 1 0.0039,0 c 0.0019,-1.8e-5 0.0039,2.4e-5 0.0059,0 0.133908,-0.0016 0.267121,-0.01671 0.398438,-0.04297 a 1.4616053,1.4616053 0 0 1 0.002,0 c 0.0019,-3.87e-4 0.0039,-0.0016 0.0059,-0.002 -0.08505,0.01703 0.01181,-0.0028 0.0059,-0.002 l 0.0098,-0.002 c 0.126021,-0.02653 0.249818,-0.06483 0.369141,-0.113281 l 0.0078,-0.002 c -0.008,0.0035 0.03329,-0.01456 0.0039,-0.002 a 1.4616053,1.4616053 0 0 1 0.01172,-0.0039 c 0.128081,-0.05368 0.251718,-0.120113 0.367188,-0.197266 l 0.002,-0.002 c 0.118289,-0.07975 0.227777,-0.170083 0.328125,-0.271484 a 1.4616053,1.4616053 0 0 1 0.0039,-0.0039 1.4616053,1.4616053 0 0 1 0.0039,-0.0039 c 0.0019,-0.0019 0.0039,-0.0039 0.0059,-0.0059 0.02136,-0.02222 -0.0452,0.04435 0.002,-0.0039 l 0.002,-0.002 c 0.09699,-0.09954 0.183588,-0.207973 0.259766,-0.324218 -0.03483,0.0532 -0.03162,0.04867 0.0098,-0.01563 a 1.4616053,1.4616053 0 0 1 0.002,-0.002 c 0.07373,-0.113982 0.136355,-0.235581 0.1875,-0.361328 -0.02024,0.05323 0.0139,-0.03444 0.002,-0.0039 a 1.4616053,1.4616053 0 0 1 0,-0.002 1.4616053,1.4616053 0 0 1 0.002,-0.0078 c 0.04916,-0.125424 0.08822,-0.256309 0.113281,-0.388671 v -0.002 a 1.4616053,1.4616053 0 0 1 0.002,-0.0039 c 1.1e-5,-9.8e-5 -9e-6,-0.0019 0,-0.002 3.6e-5,-3.17e-4 -3e-6,-0.0078 0,-0.0078 l -0.002,0.0039 c 0.02476,-0.133791 0.03783,-0.270189 0.03711,-0.40625 a 1.4616053,1.4616053 0 0 1 0,-0.002 v -0.002 c -1.7e-5,-0.0019 2.3e-5,-0.0039 0,-0.0059 0,0 0,-0.002 0,-0.002 -0.0017,-0.133648 -0.01676,-0.267373 -0.04297,-0.398438 a 1.4616053,1.4616053 0 0 1 0,-0.002 c -2.32e-4,-0.0012 2.33e-4,-0.0027 0,-0.0039 l -0.002,-0.002 c 0.02211,0.110239 0.0032,0.0153 -0.002,-0.0078 l -0.002,-0.0078 c -0.02615,-0.124978 -0.06362,-0.246798 -0.111328,-0.365234 l -0.002,-0.0039 c -0.01713,-0.04214 -0.024,-0.06378 -0.0078,-0.02539 -0.05272,-0.124689 -0.116381,-0.244735 -0.191407,-0.357422 a 1.4616053,1.4616053 0 0 1 -0.002,-0.002 1.4616053,1.4616053 0 0 1 -0.0059,-0.0078 c -0.08133,-0.12099 -0.175374,-0.233698 -0.279297,-0.335937 l -5.5000001,-5.414063 0.085937,0.07813 C 8.4821044,13.363476 8.468646,13.344766 8.5820312,13.441406 a 1.4616053,1.4616053 0 0 1 -0.076172,-0.06836 L 8.1816406,13.054688 A 1.4616053,1.4616053 0 0 1 8.1796875,10.96875 L 14.074219,5.1738281 c 0.807463,-0.7960719 0.820295,-2.2537317 0.02539,-3.0625 a 1.4616053,1.4616053 0 0 1 0,-0.00195 C 13.698368,1.7009199 13.131167,1.4620416 12.558594,1.4609375 Z m 44.279297,0 c -0.129758,0.00238 -0.259474,0.017448 -0.386719,0.042969 a 1.4616053,1.4616053 0 0 1 -0.002,0 c 0.187598,-0.037193 0.184344,-0.036389 -0.01172,0.00391 a 1.4616053,1.4616053 0 0 1 -0.002,0 C 56.30437,1.5347339 56.176704,1.5743691 56.052734,1.625 c -0.01339,0.00547 -0.01976,0.00791 -0.01953,0.00781 -0.124627,0.052877 -0.244825,0.1162421 -0.357422,0.1914063 a 1.4616053,1.4616053 0 0 1 0,0.00195 c -0.06424,0.042814 -0.06732,0.045469 -0.01172,0.00781 a 1.4616053,1.4616053 0 0 1 -0.002,0 c -0.117689,0.079453 -0.228214,0.170583 -0.328125,0.2714844 -6.4e-4,6.548e-4 -0.0013,0.0013 -0.002,0.00195 l -0.002,0.00195 c -0.09669,0.099324 -0.183782,0.208282 -0.259766,0.3242188 a 1.4616053,1.4616053 0 0 1 -0.0039,0.00586 c -0.01248,0.018887 -0.01863,0.027875 -0.01953,0.029297 a 1.4616053,1.4616053 0 0 1 0,0.00195 c -0.07159,0.112093 -0.133732,0.2302146 -0.183594,0.3535157 -4.22e-4,0.00106 3.87e-4,9.841e-4 0,0.00195 -3.29e-4,8.153e-4 -0.0016,0.00114 -0.002,0.00195 -0.0012,0.00288 -0.0012,0.00405 -0.002,0.00586 -0.04797,0.1226996 -0.08444,0.2514953 -0.109375,0.3808594 8.82e-4,-0.0045 -0.0022,0.00584 -0.0078,0.037109 l 0.002,-0.00195 c -0.0227,0.1269788 -0.03536,0.2557738 -0.03516,0.3847656 5e-5,0.02524 1.77e-4,0.036586 0,0.023437 a 1.4616053,1.4616053 0 0 1 0,0.00391 c 0.0015,0.1327051 0.01534,0.2643257 0.04102,0.3945312 -0.01563,-0.079919 -0.0245,-0.1270936 0.0059,0.023437 v -0.00781 c 0.02706,0.1303828 0.06474,0.2576426 0.115235,0.3808594 -0.0068,-0.016575 -0.0019,-0.00567 0.0078,0.017578 3.41e-4,8.151e-4 0.0016,0.00114 0.002,0.00195 0.0011,0.00268 -0.0013,-0.00108 0,0.00195 0.05341,0.1269925 0.118806,0.2487102 0.195313,0.3632812 a 1.4616053,1.4616053 0 0 1 0.0059,0.00977 c 0.07998,0.1175101 0.170083,0.2265576 0.271485,0.3261719 a 1.4616053,1.4616053 0 0 1 0.002,0.00195 l 5.5,5.4140628 a 1.4616053,1.4616053 0 0 1 0.03906,0.03711 l 0.324219,0.318359 a 1.4616053,1.4616053 0 0 1 0.002,2.085938 l -5.892578,5.794922 c -0.809092,0.795473 -0.822384,2.254936 -0.02734,3.064453 0.401242,0.408455 0.968443,0.647333 1.541016,0.648437 0.562645,0.001 1.122189,-0.228635 1.523437,-0.623046 v 0.002 l 1.654297,-1.626953 a 1.4616053,1.4616053 0 0 1 0,-0.002 l 6.869141,-6.753906 a 1.4616053,1.4616053 0 0 1 0.002,-0.002 c 0.103659,-0.101538 0.19797,-0.211862 0.279297,-0.332031 -0.0076,0.01284 -0.02932,0.05366 -0.05469,0.09766 0.04078,-0.06658 0.105302,-0.173606 0.105469,-0.173828 l -0.04492,0.06445 c 0.07656,-0.114601 0.141859,-0.236247 0.195313,-0.363281 1.51e-4,-3.78e-4 -0.02185,0.07385 -0.04102,0.134766 0.02023,-0.0627 0.03842,-0.122747 0.04687,-0.146485 a 1.4616053,1.4616053 0 0 1 0.0039,-0.0059 c 1.62e-4,-4.52e-4 -1.37e-4,-0.0035 0,-0.0039 5.48e-4,-0.0015 0.0057,-0.01332 0.0059,-0.01367 3.2e-5,-8.9e-5 -4e-6,-0.0039 0,-0.0039 l -0.0098,0.02344 c 0.05151,-0.126566 0.09038,-0.258586 0.117188,-0.392578 v 0.0059 c 0.0099,-0.05082 0.0081,-0.04545 0.0039,-0.02344 0.02583,-0.133185 0.04049,-0.270585 0.04102,-0.40625 v -0.002 -0.002 -0.002 c -2.72e-4,-0.139068 -0.01415,-0.277613 -0.04102,-0.414062 -0.02643,-0.133953 -0.06607,-0.265972 -0.117188,-0.392578 a 1.4616053,1.4616053 0 0 1 -0.002,-0.0059 c -0.03436,-0.08625 -0.03053,-0.07714 -0.0059,-0.01758 v -0.002 c -0.05201,-0.125187 -0.116962,-0.246082 -0.191406,-0.359375 a 1.4616053,1.4616053 0 0 1 -0.0078,-0.0098 c -0.08218,-0.122781 -0.175857,-0.236301 -0.28125,-0.339843 a 1.4616053,1.4616053 0 0 1 -0.002,-0.002 l -8.492187,-8.3593745 -0.002,-0.00195 C 58.296315,1.9860632 58.18747,1.8990562 58.070312,1.8222656 a 1.4616053,1.4616053 0 0 1 -0.0039,-0.00195 c -0.03638,-0.024011 -0.04368,-0.030539 -0.02344,-0.017578 -0.114717,-0.073434 -0.236835,-0.1349097 -0.363281,-0.1855469 a 1.4616053,1.4616053 0 0 1 -0.0039,-0.00195 c -1.42e-4,-4.52e-5 -0.0039,-0.00194 -0.0039,-0.00195 a 1.4616053,1.4616053 0 0 1 -0.002,0 1.4616053,1.4616053 0 0 1 -0.002,0 C 57.54354,1.5640277 57.414574,1.5254998 57.283203,1.5 h -0.0039 c -0.0086,-0.00163 -0.01631,-0.00403 -0.01563,-0.00391 a 1.4616053,1.4616053 0 0 1 -0.002,0 C 57.1298,1.4720856 56.995412,1.4601949 56.861328,1.4609375 a 1.4616053,1.4616053 0 0 1 -0.0098,0 c -0.0019,-2.6e-6 -0.0039,-2.6e-6 -0.0059,0 a 1.4616053,1.4616053 0 0 1 -0.0059,0 c -6.48e-4,1.13e-5 -0.0013,-1.19e-5 -0.002,0 z M 67.070312,13.378906 c -0.0033,0.0052 -0.02669,0.05729 -0.03516,0.07813 0.0048,-0.0107 0.02823,-0.06278 0.03516,-0.07813 z"
         transform="matrix(0.97003967,0,0,0.97003967,37.799058,104.30618)" />
      <g
         aria-label="NSH"
         id="text1329"
         style="font-style:normal;font-weight:normal;font-size:32.6897px;line-height:1.25;font-family:sans-serif;fill:#ffffff;fill-opacity:0.97580194;stroke:none;stroke-width:0.817248"
         transform="matrix(0.50000001,0,0,0.50000001,19.094113,52.15309)">
        <path
           d="m 89.699836,138.10927 q -2.19021,-3.89008 -4.740006,-7.68208 -2.549797,-3.79201 -5.426491,-7.15905 v 14.84113 h -5.034214 v -22.65396 h 4.151592 q 1.078761,1.07876 2.386349,2.64786 1.307588,1.56911 2.647865,3.36704 1.372968,1.76524 2.713246,3.69394 1.340277,1.896 2.517107,3.66124 v -13.37008 h 5.066903 v 22.65396 z"
           style="font-style:normal;font-variant:normal;font-weight:bold;font-stretch:normal;font-family:Ubuntu;-inkscape-font-specification:'Ubuntu Bold';fill:#ffffff;stroke-width:0.817248;fill-opacity:0.97580194"
           id="path141" />
        <path
           d="m 105.39085,134.21919 q 1.07876,0 1.76524,-0.16344 0.71918,-0.19614 1.14414,-0.49035 0.42497,-0.3269 0.58842,-0.75186 0.16344,-0.42497 0.16344,-0.948 0,-1.11145 -1.04607,-1.83063 -1.04607,-0.75186 -3.59586,-1.60179 -1.11145,-0.39228 -2.2229,-0.88263 -1.11145,-0.52303 -1.99407,-1.27489 -0.882626,-0.78456 -1.438351,-1.86332 -0.555725,-1.11145 -0.555725,-2.68055 0,-1.56911 0.588415,-2.81132 0.588414,-1.27489 1.667171,-2.15752 1.07876,-0.88262 2.61518,-1.34027 1.53642,-0.49035 3.46511,-0.49035 2.28828,0 3.95545,0.49035 1.66718,0.49034 2.74594,1.07876 l -1.47104,4.02083 q -0.948,-0.49035 -2.12483,-0.84993 -1.14414,-0.39228 -2.77863,-0.39228 -1.83062,0 -2.64786,0.52304 -0.78455,0.49034 -0.78455,1.53641 0,0.62111 0.2942,1.04607 0.29421,0.42497 0.81725,0.78455 0.55572,0.3269 1.2422,0.62111 0.71918,0.26152 1.56911,0.55572 1.76524,0.6538 3.07283,1.30759 1.30759,0.62111 2.15752,1.47104 0.88262,0.84993 1.30759,1.99407 0.42497,1.14414 0.42497,2.77862 0,3.17091 -2.2229,4.93615 -2.2229,1.73255 -6.70139,1.73255 -1.50373,0 -2.71325,-0.19613 -1.20952,-0.16345 -2.15752,-0.42497 -0.915309,-0.26152 -1.601793,-0.55573 -0.653794,-0.2942 -1.111449,-0.55572 l 1.438346,-4.05352 q 1.013386,0.55572 2.484416,1.01338 1.50373,0.42496 3.66125,0.42496 z"
           style="font-style:normal;font-variant:normal;font-weight:bold;font-stretch:normal;font-family:Ubuntu;-inkscape-font-specification:'Ubuntu Bold';fill:#ffffff;stroke-width:0.817248;fill-opacity:0.97580194"
           id="path143" />
        <path
           d="m 131.90216,115.45531 h 5.09959 v 22.65396 h -5.09959 v -9.61077 h -8.5647 v 9.61077 h -5.0996 v -22.65396 h 5.0996 v 8.66277 h 8.5647 z"
           style="font-style:normal;font-variant:normal;font-weight:bold;font-stretch:normal;font-family:Ubuntu;-inkscape-font-specification:'Ubuntu Bold';fill:#ffffff;stroke-width:0.817248;fill-opacity:0.97580194"
           id="path145" />
      </g>
    </g>
  </g>
</svg>
