<?xml version="1.0" encoding="UTF-8" standalone="no"?>
<svg
   xmlns:dc="http://purl.org/dc/elements/1.1/"
   xmlns:cc="http://creativecommons.org/ns#"
   xmlns:rdf="http://www.w3.org/1999/02/22-rdf-syntax-ns#"
   xmlns:svg="http://www.w3.org/2000/svg"
   xmlns="http://www.w3.org/2000/svg"
   xmlns:sodipodi="http://sodipodi.sourceforge.net/DTD/sodipodi-0.dtd"
   xmlns:inkscape="http://www.inkscape.org/namespaces/inkscape"
   width="138"
   height="48"
   viewBox="0 0 36.512499 12.7"
   version="1.1"
   id="svg77"
   inkscape:version="1.0.2 (e86c870879, 2021-01-15)"
   sodipodi:docname="logo-nsh.svg">
  <defs
     id="defs71" />
  <sodipodi:namedview
     id="base"
     pagecolor="#ffffff"
     bordercolor="#666666"
     borderopacity="1.0"
     inkscape:pageopacity="0.0"
     inkscape:pageshadow="2"
     inkscape:zoom="5.6"
     inkscape:cx="53.968154"
     inkscape:cy="37.070057"
     inkscape:document-units="px"
     inkscape:current-layer="layer1"
     inkscape:document-rotation="0"
     showgrid="false"
     units="px"
     inkscape:window-width="1366"
     inkscape:window-height="717"
     inkscape:window-x="0"
     inkscape:window-y="27"
     inkscape:window-maximized="1" />
  <metadata
     id="metadata74">
    <rdf:RDF>
      <cc:Work
         rdf:about="">
        <dc:format>image/svg+xml</dc:format>
        <dc:type
           rdf:resource="http://purl.org/dc/dcmitype/StillImage" />
        <dc:title />
      </cc:Work>
    </rdf:RDF>
  </metadata>
  <g
     inkscape:label="Layer 1"
     inkscape:groupmode="layer"
     id="layer1">
    <g
       id="g121"
       transform="matrix(0.27275516,0,0,0.27275516,-10.309888,-28.45005)">
      <ellipse
         style="fill:none;stroke:none;stroke-width:0.0863096;stroke-linecap:round;stroke-linejoin:round;stroke-miterlimit:4;stroke-dasharray:none;paint-order:stroke markers fill"
         id="circle1313"
         cx="61.768581"
         cy="111.3474"
         rx="6.7330813"
         ry="6.7330084" />
      <ellipse
         style="fill:none;stroke:none;stroke-width:0.0863096;stroke-linecap:round;stroke-linejoin:round;stroke-miterlimit:4;stroke-dasharray:none;paint-order:stroke markers fill"
         id="circle1315"
         cx="45.228481"
         cy="127.60634"
         rx="6.7330813"
         ry="6.7330084" />
      <ellipse
         style="fill:none;stroke:none;stroke-width:0.0863096;stroke-linecap:round;stroke-linejoin:round;stroke-miterlimit:4;stroke-dasharray:none;paint-order:stroke markers fill"
         id="circle1317"
         cx="61.709682"
         cy="143.82661"
         rx="6.7330813"
         ry="6.7330084" />
      <path
         style="color:#000000;font-style:normal;font-variant:normal;font-weight:normal;font-stretch:normal;font-size:medium;line-height:normal;font-family:sans-serif;font-variant-ligatures:normal;font-variant-position:normal;font-variant-caps:normal;font-variant-numeric:normal;font-variant-alternates:normal;font-variant-east-asian:normal;font-feature-settings:normal;font-variation-settings:normal;text-indent:0;text-align:start;text-decoration:none;text-decoration-line:none;text-decoration-style:solid;text-decoration-color:#000000;letter-spacing:normal;word-spacing:normal;text-transform:none;writing-mode:lr-tb;direction:ltr;text-orientation:mixed;dominant-baseline:auto;baseline-shift:baseline;text-anchor:start;white-space:normal;shape-padding:0;shape-margin:0;inline-size:0;clip-rule:nonzero;display:inline;overflow:visible;visibility:visible;isolation:auto;mix-blend-mode:normal;color-interpolation:sRGB;color-interpolation-filters:linearRGB;solid-color:#000000;solid-opacity:1;vector-effect:none;fill:#4500a9;fill-opacity:1;fill-rule:nonzero;stroke:none;stroke-width:0.999995;stroke-linecap:round;stroke-linejoin:round;stroke-miterlimit:4;stroke-dasharray:none;stroke-dashoffset:0;stroke-opacity:1;color-rendering:auto;image-rendering:auto;shape-rendering:auto;text-rendering:auto;enable-background:accumulate;stop-color:#000000"
         d="m 61.779712,104.3062 a 7.0409999,7.0409234 0 0 0 -4.94727,2.01951 l -16.53906,16.25958 a 7.041704,7.0416275 0 0 0 -0.004,10.03896 l 16.48047,16.22053 a 7.0409999,7.0409234 0 0 0 9.95898,-0.0801 7.0409999,7.0409234 0 0 0 -0.0801,-9.95692 l -11.3789,-11.19908 11.43359,-11.24011 a 7.0409999,7.0409234 0 0 0 0.0859,-9.95692 7.0409999,7.0409234 0 0 0 -5.00977,-2.10545 z"
         id="path1319" />
      <path
         id="path1321"
         style="color:#000000;font-style:normal;font-variant:normal;font-weight:normal;font-stretch:normal;font-size:medium;line-height:normal;font-family:sans-serif;font-variant-ligatures:normal;font-variant-position:normal;font-variant-caps:normal;font-variant-numeric:normal;font-variant-alternates:normal;font-variant-east-asian:normal;font-feature-settings:normal;font-variation-settings:normal;text-indent:0;text-align:start;text-decoration:none;text-decoration-line:none;text-decoration-style:solid;text-decoration-color:#000000;letter-spacing:normal;word-spacing:normal;text-transform:none;writing-mode:lr-tb;direction:ltr;text-orientation:mixed;dominant-baseline:auto;baseline-shift:baseline;text-anchor:start;white-space:normal;shape-padding:0;shape-margin:0;inline-size:0;clip-rule:nonzero;display:inline;overflow:visible;visibility:visible;isolation:auto;mix-blend-mode:normal;color-interpolation:sRGB;color-interpolation-filters:linearRGB;solid-color:#000000;solid-opacity:1;vector-effect:none;fill:#6200ee;fill-opacity:1;fill-rule:nonzero;stroke:none;stroke-width:0.999995;stroke-linecap:round;stroke-linejoin:round;stroke-miterlimit:4;stroke-dasharray:none;stroke-dashoffset:0;stroke-opacity:1;color-rendering:auto;image-rendering:auto;shape-rendering:auto;text-rendering:auto;enable-background:accumulate;stop-color:#000000"
         d="m 53.622332,109.48146 -13.3289,13.10396 c -2.80534,2.75775 -2.8072,7.27902 -0.004,10.03907 l 16.48064,16.22003 c 2.77179,2.72887 7.23125,2.69324 9.95908,-0.0796 2.72738,-2.77166 2.69152,-7.22948 -0.0801,-9.95691 l -10.67172,-10.5031 c -3.15756,-2.64837 -4.98138,-6.55819 -4.98161,-10.67933 4e-5,-2.92295 0.91892,-5.77195 2.62671,-8.14412 z"
         sodipodi:nodetypes="ccccccccc" />
      <path
         style="color:#000000;font-style:normal;font-variant:normal;font-weight:normal;font-stretch:normal;font-size:medium;line-height:normal;font-family:sans-serif;font-variant-ligatures:normal;font-variant-position:normal;font-variant-caps:normal;font-variant-numeric:normal;font-variant-alternates:normal;font-variant-east-asian:normal;font-feature-settings:normal;font-variation-settings:normal;text-indent:0;text-align:start;text-decoration:none;text-decoration-line:none;text-decoration-style:solid;text-decoration-color:#000000;letter-spacing:normal;word-spacing:normal;text-transform:none;writing-mode:lr-tb;direction:ltr;text-orientation:mixed;dominant-baseline:auto;baseline-shift:baseline;text-anchor:start;white-space:normal;shape-padding:0;shape-margin:0;inline-size:0;clip-rule:nonzero;display:inline;overflow:visible;visibility:visible;isolation:auto;mix-blend-mode:normal;color-interpolation:sRGB;color-interpolation-filters:linearRGB;solid-color:#000000;solid-opacity:1;vector-effect:none;fill:#4500a9;fill-opacity:1;fill-rule:nonzero;stroke:none;stroke-width:0.999995;stroke-linecap:round;stroke-linejoin:round;stroke-miterlimit:4;stroke-dasharray:none;stroke-dashoffset:0;stroke-opacity:1;color-rendering:auto;image-rendering:auto;shape-rendering:auto;text-rendering:auto;enable-background:accumulate;stop-color:#000000"
         d="m 147.68388,150.86806 a 7.0409999,7.0409234 0 0 0 4.94726,-2.0195 l 16.53907,-16.25959 a 7.041704,7.0416275 0 0 0 0.004,-10.03896 l -16.48047,-16.22052 a 7.0409999,7.0409234 0 0 0 -9.95898,0.0801 7.0409999,7.0409234 0 0 0 0.0801,9.95692 l 11.3789,11.1991 -11.43359,11.24011 a 7.0409999,7.0409234 0 0 0 -0.0859,9.95692 7.0409999,7.0409234 0 0 0 5.00977,2.10544 z"
         id="path1323" />
      <path
         id="path1325"
         style="color:#000000;font-style:normal;font-variant:normal;font-weight:normal;font-stretch:normal;font-size:medium;line-height:normal;font-family:sans-serif;font-variant-ligatures:normal;font-variant-position:normal;font-variant-caps:normal;font-variant-numeric:normal;font-variant-alternates:normal;font-variant-east-asian:normal;font-feature-settings:normal;font-variation-settings:normal;text-indent:0;text-align:start;text-decoration:none;text-decoration-line:none;text-decoration-style:solid;text-decoration-color:#000000;letter-spacing:normal;word-spacing:normal;text-transform:none;writing-mode:lr-tb;direction:ltr;text-orientation:mixed;dominant-baseline:auto;baseline-shift:baseline;text-anchor:start;white-space:normal;shape-padding:0;shape-margin:0;inline-size:0;clip-rule:nonzero;display:inline;overflow:visible;visibility:visible;isolation:auto;mix-blend-mode:normal;color-interpolation:sRGB;color-interpolation-filters:linearRGB;solid-color:#000000;solid-opacity:1;vector-effect:none;fill:#6200ee;fill-opacity:1;fill-rule:nonzero;stroke:none;stroke-width:0.999995;stroke-linecap:round;stroke-linejoin:round;stroke-miterlimit:4;stroke-dasharray:none;stroke-dashoffset:0;stroke-opacity:1;color-rendering:auto;image-rendering:auto;shape-rendering:auto;text-rendering:auto;enable-background:accumulate;stop-color:#000000"
         d="m 155.84126,145.6928 13.3289,-13.10396 c 2.80534,-2.75775 2.8072,-7.27902 0.004,-10.03907 l -16.48065,-16.22002 c -2.77179,-2.72887 -7.23125,-2.69324 -9.95908,0.0796 -2.72738,2.77166 -2.69152,7.22948 0.0801,9.95691 l 10.6717,10.50311 c 3.15755,2.64838 4.98137,6.55819 4.98161,10.67934 -5e-5,2.92295 -0.91893,5.77195 -2.62671,8.14411 z"
         sodipodi:nodetypes="ccccccccc" />
      <g
         aria-label="NSH"
         id="text1329"
         style="font-style:normal;font-weight:normal;font-size:32.6897px;line-height:1.25;font-family:sans-serif;fill:#000000;fill-opacity:1;stroke:none;stroke-width:0.817248">
        <path
           d="m 89.699836,138.10927 q -2.19021,-3.89008 -4.740006,-7.68208 -2.549797,-3.79201 -5.426491,-7.15905 v 14.84113 h -5.034214 v -22.65396 h 4.151592 q 1.078761,1.07876 2.386349,2.64786 1.307588,1.56911 2.647865,3.36704 1.372968,1.76524 2.713246,3.69394 1.340277,1.896 2.517107,3.66124 v -13.37008 h 5.066903 v 22.65396 z"
           style="font-style:normal;font-variant:normal;font-weight:bold;font-stretch:normal;font-family:Ubuntu;-inkscape-font-specification:'Ubuntu Bold';stroke-width:0.817248"
           id="path141" />
        <path
           d="m 105.39085,134.21919 q 1.07876,0 1.76524,-0.16344 0.71918,-0.19614 1.14414,-0.49035 0.42497,-0.3269 0.58842,-0.75186 0.16344,-0.42497 0.16344,-0.948 0,-1.11145 -1.04607,-1.83063 -1.04607,-0.75186 -3.59586,-1.60179 -1.11145,-0.39228 -2.2229,-0.88263 -1.11145,-0.52303 -1.99407,-1.27489 -0.882626,-0.78456 -1.438351,-1.86332 -0.555725,-1.11145 -0.555725,-2.68055 0,-1.56911 0.588415,-2.81132 0.588414,-1.27489 1.667171,-2.15752 1.07876,-0.88262 2.61518,-1.34027 1.53642,-0.49035 3.46511,-0.49035 2.28828,0 3.95545,0.49035 1.66718,0.49034 2.74594,1.07876 l -1.47104,4.02083 q -0.948,-0.49035 -2.12483,-0.84993 -1.14414,-0.39228 -2.77863,-0.39228 -1.83062,0 -2.64786,0.52304 -0.78455,0.49034 -0.78455,1.53641 0,0.62111 0.2942,1.04607 0.29421,0.42497 0.81725,0.78455 0.55572,0.3269 1.2422,0.62111 0.71918,0.26152 1.56911,0.55572 1.76524,0.6538 3.07283,1.30759 1.30759,0.62111 2.15752,1.47104 0.88262,0.84993 1.30759,1.99407 0.42497,1.14414 0.42497,2.77862 0,3.17091 -2.2229,4.93615 -2.2229,1.73255 -6.70139,1.73255 -1.50373,0 -2.71325,-0.19613 -1.20952,-0.16345 -2.15752,-0.42497 -0.915309,-0.26152 -1.601793,-0.55573 -0.653794,-0.2942 -1.111449,-0.55572 l 1.438346,-4.05352 q 1.013386,0.55572 2.484416,1.01338 1.50373,0.42496 3.66125,0.42496 z"
           style="font-style:normal;font-variant:normal;font-weight:bold;font-stretch:normal;font-family:Ubuntu;-inkscape-font-specification:'Ubuntu Bold';stroke-width:0.817248"
           id="path143" />
        <path
           d="m 131.90216,115.45531 h 5.09959 v 22.65396 h -5.09959 v -9.61077 h -8.5647 v 9.61077 h -5.0996 v -22.65396 h 5.0996 v 8.66277 h 8.5647 z"
           style="font-style:normal;font-variant:normal;font-weight:bold;font-stretch:normal;font-family:Ubuntu;-inkscape-font-specification:'Ubuntu Bold';stroke-width:0.817248"
           id="path145" />
      </g>
    </g>
  </g>
</svg>
