<?xml version="1.0" encoding="UTF-8" standalone="no"?>
<svg
   xmlns:dc="http://purl.org/dc/elements/1.1/"
   xmlns:cc="http://creativecommons.org/ns#"
   xmlns:rdf="http://www.w3.org/1999/02/22-rdf-syntax-ns#"
   xmlns:svg="http://www.w3.org/2000/svg"
   xmlns="http://www.w3.org/2000/svg"
   xmlns:sodipodi="http://sodipodi.sourceforge.net/DTD/sodipodi-0.dtd"
   xmlns:inkscape="http://www.inkscape.org/namespaces/inkscape"
   width="210"
   height="83"
   viewBox="0 0 55.562499 21.960417"
   version="1.1"
   id="svg292"
   inkscape:version="1.0.2 (e86c870879, 2021-01-15)"
   sodipodi:docname="logomarca_black.svg">
  <defs
     id="defs286" />
  <sodipodi:namedview
     id="base"
     pagecolor="#ffffff"
     bordercolor="#666666"
     borderopacity="1.0"
     inkscape:pageopacity="0.0"
     inkscape:pageshadow="2"
     inkscape:zoom="2.8"
     inkscape:cx="76.413704"
     inkscape:cy="61.219736"
     inkscape:document-units="mm"
     inkscape:current-layer="layer1"
     inkscape:document-rotation="0"
     showgrid="false"
     units="px"
     inkscape:window-width="1366"
     inkscape:window-height="717"
     inkscape:window-x="0"
     inkscape:window-y="27"
     inkscape:window-maximized="1" />
  <metadata
     id="metadata289">
    <rdf:RDF>
      <cc:Work
         rdf:about="">
        <dc:format>image/svg+xml</dc:format>
        <dc:type
           rdf:resource="http://purl.org/dc/dcmitype/StillImage" />
        <dc:title />
      </cc:Work>
    </rdf:RDF>
  </metadata>
  <g
     inkscape:label="Layer 1"
     inkscape:groupmode="layer"
     id="layer1">
    <g
       id="Group"
       fill="#000000"
       fill-rule="nonzero"
       stroke-linejoin="round"
       stroke-linecap="round"
       stroke="none"
       stroke-width="2.719"
       stroke-miterlimit="79.8403"
       style="font-size:16px;font-family:'Times New Roman';font-variant-ligatures:none;fill:#3772cb;fill-opacity:1"
       transform="matrix(0.18725463,0,0,-0.18725463,-27.830131,91.557957)">
      <g
         id="Group_1"
         style="fill:#3772cb;fill-opacity:1">
        <path
           d="m 187.395,414.309 h -15.094 l -19.769,56.544 h 15.73 l 11.266,-39.751 9.992,34.649 c 1.134,3.403 3.401,5.103 6.802,5.102 v 0 h 11.053 z"
           marker-start="none"
           marker-end="none"
           id="path44"
           style="fill:#3772cb;fill-opacity:1" />
        <path
           d="m 217.376,470.853 h 7.652 c 1.985,10e-4 3.685,-0.708 5.102,-2.125 1.417,-1.417 2.126,-3.117 2.126,-5.102 v -49.317 h -14.88 z m 0,16.581 h 7.652 c 1.985,0 3.685,-0.709 5.102,-2.125 1.417,-1.418 2.126,-3.119 2.126,-5.102 v -4.464 h -14.88 z"
           marker-start="none"
           marker-end="none"
           id="path46"
           style="fill:#3772cb;fill-opacity:1" />
        <path
           d="m 264.15,414.309 c -4.677,-0.284 -9.742,-0.213 -15.199,0.213 -5.456,0.425 -8.184,3.897 -8.184,10.415 v 62.497 h 7.653 c 1.843,0 3.472,-0.709 4.889,-2.125 1.418,-1.418 2.125,-3.119 2.125,-5.102 v -9.566 h 8.716 v -2.976 c 0,-2.125 -0.707,-3.862 -2.125,-5.208 -1.417,-1.347 -3.117,-2.019 -5.102,-2.019 h -1.489 v -31.462 c 0,-2.409 1.418,-3.612 4.252,-3.612 h 4.464 z"
           marker-start="none"
           marker-end="none"
           id="path48"
           style="fill:#3772cb;fill-opacity:1" />
        <path
           d="m 271.599,414.309 v 27.422 c 0,5.527 0.815,10.168 2.444,13.924 1.63,3.755 3.863,6.766 6.697,9.033 2.694,2.126 5.847,3.686 9.46,4.677 3.614,0.994 7.334,1.489 11.16,1.488 0.284,10e-4 0.638,10e-4 1.063,0 0.424,10e-4 0.778,10e-4 1.062,0 v -15.092 h -4.89 c -4.108,0 -7.154,-0.993 -9.139,-2.977 -1.983,-1.984 -2.976,-5.101 -2.976,-9.352 v -29.123 z"
           marker-start="none"
           marker-end="none"
           id="path50"
           style="fill:#3772cb;fill-opacity:1" />
        <path
           d="m 312.422,470.853 h 7.652 c 1.985,10e-4 3.685,-0.708 5.102,-2.125 1.417,-1.417 2.126,-3.117 2.126,-5.102 v -49.317 h -14.88 z m 0,16.581 h 7.652 c 1.985,0 3.685,-0.709 5.102,-2.125 1.417,-1.418 2.126,-3.119 2.126,-5.102 v -4.464 h -14.88 z"
           marker-start="none"
           marker-end="none"
           id="path52"
           style="fill:#3772cb;fill-opacity:1" />
        <path
           d="m 383.429,414.309 h -7.44 c -2.126,0 -3.861,0.673 -5.208,2.02 -1.347,1.345 -2.019,3.082 -2.019,5.207 v 0 28.91 c 0,3.403 -1.028,5.882 -3.083,7.44 -2.054,1.559 -4.356,2.339 -6.908,2.339 -2.55,0 -4.817,-0.78 -6.802,-2.339 -1.983,-1.558 -2.976,-4.037 -2.976,-7.44 v -36.137 h -14.881 v 33.162 c 0,9.637 2.515,16.084 7.546,19.343 5.031,3.26 10.594,5.032 16.687,5.315 6.237,0 11.977,-1.63 17.219,-4.889 5.244,-3.259 7.865,-9.848 7.865,-19.769 z"
           marker-start="none"
           marker-end="none"
           id="path54"
           style="fill:#3772cb;fill-opacity:1" />
        <path
           d="m 431.267,431.74 h 10.628 c -1.559,-5.952 -4.535,-10.487 -8.928,-13.605 -4.393,-3.259 -9.919,-4.889 -16.581,-4.889 -8.076,0 -14.383,2.621 -18.919,7.865 -4.535,5.102 -6.803,12.4 -6.803,21.895 0,9.069 2.197,16.156 6.591,21.258 4.535,5.244 10.841,7.865 18.918,7.865 8.504,0 15.094,-2.55 19.769,-7.652 4.535,-5.244 6.802,-12.544 6.802,-21.896 0,-0.567 0,-1.063 0,-1.488 0,-0.426 0,-0.708 0,-0.851 0,-0.707 -0.071,-1.203 -0.211,-1.487 h -36.775 c 0.142,-4.393 1.205,-7.653 3.188,-9.779 1.843,-2.267 4.606,-3.401 8.29,-3.401 2.409,0 4.465,0.497 6.166,1.489 0.424,0.142 0.813,0.39 1.168,0.744 0.354,0.355 0.744,0.744 1.169,1.168 0.142,0.425 0.674,0.992 1.594,1.701 0.922,0.709 2.233,1.064 3.934,1.063 z m -25.509,16.581 h 21.681 c -0.283,3.826 -1.274,6.66 -2.975,8.502 -1.842,1.985 -4.464,2.977 -7.865,2.977 -3.117,0 -5.668,-0.992 -7.653,-2.977 -1.983,-1.983 -3.046,-4.817 -3.188,-8.502 z"
           marker-start="none"
           marker-end="none"
           id="path56"
           style="fill:#3772cb;fill-opacity:1" />
      </g>
    </g>
    <g
       id="Group_2"
       fill="#000000"
       fill-rule="nonzero"
       stroke-linejoin="round"
       stroke-linecap="round"
       stroke="none"
       stroke-width="1.245"
       stroke-miterlimit="79.8403"
       style="font-size:16px;font-family:'Times New Roman';font-variant-ligatures:none;fill:#3772cb;fill-opacity:1"
       transform="matrix(0.18912427,0,0,-0.18912427,-29.075699,92.199881)">
      <g
         id="Group_3"
         style="fill:#3772cb;fill-opacity:1">
        <path
           d="m 174.478,373.415 h 7.518 l 7.269,19.125 c 0.123,0.321 0.3,0.552 0.529,0.691 0.229,0.141 0.518,0.209 0.865,0.206 h 0.597 v 5.372 h -3.385 c -1.008,0.009 -1.805,-0.172 -2.39,-0.542 -0.585,-0.37 -1.033,-0.985 -1.344,-1.846 l -4.78,-13.343 c -0.167,-0.516 -0.319,-1.052 -0.453,-1.607 -0.135,-0.556 -0.242,-1.028 -0.321,-1.418 -0.08,-0.39 -0.12,-0.594 -0.122,-0.611 h -0.1 c -10e-4,0.017 -0.043,0.221 -0.123,0.611 -0.081,0.39 -0.192,0.862 -0.334,1.418 -0.142,0.555 -0.304,1.091 -0.488,1.607 l -4.78,13.343 c -0.308,0.861 -0.75,1.476 -1.326,1.846 -0.575,0.37 -1.378,0.551 -2.408,0.542 h -3.635 v -5.372 h 0.548 c 0.347,0.003 0.635,-0.065 0.865,-0.206 0.229,-0.139 0.405,-0.37 0.529,-0.691 z"
           marker-start="none"
           marker-end="none"
           id="path60"
           style="fill:#3772cb;fill-opacity:1" />
        <path
           d="m 196.87,402.943 h 5.479 v 5.822 h -5.479 z m -0.305,-26.145 c -0.007,-1.186 0.256,-2.048 0.79,-2.587 0.534,-0.539 1.383,-0.804 2.545,-0.796 h 6.024 v 5.323 h -1.992 c -0.35,0.002 -0.62,0.097 -0.809,0.286 -0.189,0.189 -0.284,0.459 -0.286,0.81 v 15.592 c 0.007,1.164 -0.256,2.02 -0.791,2.568 -0.534,0.548 -1.382,0.82 -2.544,0.815 h -6.024 v -5.372 h 1.992 c 0.351,10e-4 0.62,-0.088 0.809,-0.268 0.189,-0.179 0.284,-0.456 0.286,-0.828 z"
           marker-start="none"
           marker-end="none"
           id="path62"
           style="fill:#3772cb;fill-opacity:1" />
        <path
           d="m 211.684,373.415 h 6.271 v 10.061 c 10e-4,0.748 0.049,1.468 0.144,2.16 0.094,0.692 0.228,1.35 0.404,1.973 0.396,1.258 0.964,2.279 1.706,3.064 0.74,0.786 1.567,1.36 2.48,1.725 0.913,0.364 1.825,0.545 2.735,0.541 0.456,-0.004 0.825,-0.021 1.108,-0.05 0.282,-0.029 0.427,-0.046 0.436,-0.051 v 6.223 c -0.014,0.005 -0.136,0.022 -0.367,0.05 -0.232,0.03 -0.491,0.046 -0.778,0.05 -1.302,-0.013 -2.489,-0.308 -3.563,-0.883 -1.074,-0.576 -1.996,-1.353 -2.767,-2.332 -0.769,-0.98 -1.349,-2.082 -1.737,-3.307 h -0.099 c 0.004,0.008 0.02,0.156 0.049,0.443 0.029,0.288 0.046,0.671 0.05,1.151 v 1.492 c -0.001,1.064 -0.285,1.845 -0.853,2.344 -0.567,0.498 -1.41,0.745 -2.531,0.74 h -5.775 v -5.372 h 1.992 c 0.35,10e-4 0.62,-0.088 0.809,-0.268 0.189,-0.179 0.284,-0.455 0.286,-0.828 z"
           marker-start="none"
           marker-end="none"
           id="path64"
           style="fill:#3772cb;fill-opacity:1" />
        <path
           d="m 232.734,382.727 c 0.014,-1.693 0.267,-3.113 0.758,-4.262 0.492,-1.147 1.138,-2.073 1.938,-2.777 0.801,-0.705 1.673,-1.239 2.615,-1.603 0.942,-0.364 1.871,-0.609 2.787,-0.736 0.915,-0.126 1.733,-0.184 2.455,-0.176 0.582,0.006 1.049,0.031 1.4,0.075 0.352,0.043 0.533,0.068 0.542,0.074 v 5.527 c -0.004,-0.004 -0.108,-0.02 -0.312,-0.049 -0.203,-0.03 -0.481,-0.046 -0.834,-0.05 -0.448,-0.008 -0.955,0.045 -1.521,0.158 -0.566,0.114 -1.114,0.334 -1.647,0.663 -0.532,0.327 -0.973,0.809 -1.32,1.446 -0.348,0.636 -0.528,1.473 -0.541,2.51 v 10.251 h 5.776 v 5.029 h -5.776 v 6.922 h -6.171 v -6.922 h -3.435 v -5.029 h 3.286 z"
           marker-start="none"
           marker-end="none"
           id="path66"
           style="fill:#3772cb;fill-opacity:1" />
        <path
           d="m 251.402,382.475 c 0.007,-2.297 0.362,-4.156 1.065,-5.578 0.703,-1.421 1.707,-2.459 3.012,-3.112 1.306,-0.652 2.867,-0.975 4.683,-0.966 1.465,0.016 2.783,0.277 3.954,0.782 1.17,0.505 2.163,1.156 2.979,1.954 0.817,0.798 1.426,1.644 1.829,2.54 h 0.1 c -0.003,-0.012 -0.011,-0.129 -0.025,-0.352 -0.015,-0.222 -0.024,-0.487 -0.025,-0.796 v -0.697 c 0.001,-0.901 0.283,-1.598 0.846,-2.089 0.561,-0.491 1.39,-0.74 2.488,-0.746 h 5.824 v 5.323 h -1.992 c -0.351,0.002 -0.62,0.097 -0.809,0.286 -0.189,0.189 -0.284,0.459 -0.287,0.81 v 18.975 h -6.319 v -11.65 c -0.001,-1.142 -0.157,-2.226 -0.468,-3.251 -0.311,-1.025 -0.769,-1.936 -1.374,-2.732 -0.606,-0.797 -1.35,-1.424 -2.233,-1.883 -0.883,-0.458 -1.898,-0.691 -3.044,-0.701 -1.036,0.007 -1.84,0.225 -2.414,0.657 -0.572,0.431 -0.971,1.034 -1.196,1.808 -0.225,0.774 -0.333,1.68 -0.323,2.716 v 11.703 c 0.007,1.14 -0.256,1.981 -0.79,2.524 -0.534,0.543 -1.382,0.813 -2.545,0.809 h -6.024 v -5.372 h 1.992 c 0.351,10e-4 0.621,-0.088 0.809,-0.268 0.189,-0.179 0.285,-0.455 0.287,-0.828 z"
           marker-start="none"
           marker-end="none"
           id="path68"
           style="fill:#3772cb;fill-opacity:1" />
        <path
           d="m 281.217,380.734 c 0.009,-1.271 0.249,-2.396 0.716,-3.377 0.468,-0.981 1.106,-1.809 1.915,-2.483 0.809,-0.673 1.73,-1.183 2.764,-1.53 1.035,-0.347 2.124,-0.522 3.265,-0.524 1.144,0.013 2.144,0.168 2.999,0.467 0.855,0.299 1.582,0.669 2.178,1.111 0.597,0.443 1.079,0.886 1.447,1.327 0.367,0.443 0.634,0.814 0.802,1.113 0.168,0.298 0.25,0.454 0.248,0.466 h 0.1 c -0.002,-0.009 -0.011,-0.114 -0.025,-0.312 -0.015,-0.199 -0.023,-0.463 -0.025,-0.791 -0.004,-0.505 0.103,-0.967 0.319,-1.386 0.216,-0.419 0.562,-0.756 1.038,-1.009 0.475,-0.253 1.102,-0.384 1.879,-0.391 h 5.676 v 5.323 h -1.992 c -0.351,0.002 -0.621,0.097 -0.809,0.287 -0.189,0.189 -0.285,0.459 -0.287,0.81 v 9.466 c 0.01,1.427 -0.164,2.753 -0.521,3.974 -0.357,1.222 -0.95,2.29 -1.782,3.207 -0.83,0.916 -1.953,1.63 -3.368,2.142 -1.415,0.512 -3.177,0.772 -5.285,0.78 -0.542,0.005 -1.202,-0.025 -1.981,-0.09 -0.779,-0.064 -1.591,-0.193 -2.435,-0.387 -0.845,-0.194 -1.636,-0.483 -2.375,-0.866 -0.739,-0.382 -1.34,-0.89 -1.801,-1.521 -0.463,-0.632 -0.701,-1.418 -0.715,-2.358 v -2.689 h 5.87 v 1.344 c 0.009,0.347 0.132,0.631 0.368,0.853 0.237,0.222 0.536,0.395 0.896,0.517 0.361,0.123 0.731,0.208 1.111,0.255 0.38,0.048 0.717,0.071 1.013,0.069 1.612,0.02 2.797,-0.356 3.556,-1.127 0.758,-0.771 1.134,-2.056 1.127,-3.854 v -0.199 h -0.797 c -0.703,0.005 -1.554,-0.024 -2.554,-0.085 -1,-0.062 -2.065,-0.188 -3.196,-0.378 -1.132,-0.191 -2.247,-0.476 -3.345,-0.857 -1.099,-0.381 -2.099,-0.888 -3.001,-1.521 -0.902,-0.633 -1.623,-1.423 -2.163,-2.37 -0.539,-0.948 -0.816,-2.083 -0.83,-3.406 z m 6.368,0.306 c 0.019,0.876 0.309,1.582 0.869,2.114 0.561,0.533 1.28,0.934 2.158,1.204 0.879,0.271 1.804,0.451 2.776,0.541 0.971,0.091 1.877,0.132 2.718,0.125 h 1.096 v -0.597 c -0.003,-0.783 -0.145,-1.565 -0.426,-2.346 -0.28,-0.781 -0.678,-1.498 -1.193,-2.149 -0.514,-0.653 -1.123,-1.176 -1.828,-1.571 -0.704,-0.396 -1.482,-0.598 -2.333,-0.609 -0.863,0.009 -1.578,0.168 -2.146,0.476 -0.567,0.308 -0.991,0.711 -1.271,1.206 -0.281,0.497 -0.42,1.032 -0.42,1.606 z"
           marker-start="none"
           marker-end="none"
           id="path70"
           style="fill:#3772cb;fill-opacity:1" />
        <path
           d="m 311.883,376.798 c -0.009,-1.186 0.257,-2.048 0.796,-2.587 0.54,-0.539 1.402,-0.804 2.588,-0.796 h 5.973 v 5.323 h -1.942 c -0.35,0.002 -0.62,0.097 -0.809,0.286 -0.189,0.189 -0.284,0.459 -0.286,0.81 v 25.548 c 0.005,1.164 -0.266,2.02 -0.815,2.568 -0.548,0.548 -1.405,0.82 -2.569,0.815 h -6.023 v -5.372 h 1.992 c 0.35,0.002 0.619,-0.088 0.809,-0.267 0.188,-0.179 0.283,-0.456 0.286,-0.829 z"
           marker-start="none"
           marker-end="none"
           id="path72"
           style="fill:#3772cb;fill-opacity:1" />
        <path
           d="m 326.357,373.415 h 6.124 v 6.32 h -6.124 z"
           marker-start="none"
           marker-end="none"
           id="path74"
           style="fill:#3772cb;fill-opacity:1" />
        <path
           d="m 337.4,386.115 c 0.007,-1.853 0.33,-3.582 0.971,-5.186 0.641,-1.603 1.561,-3.011 2.762,-4.224 1.201,-1.213 2.645,-2.161 4.332,-2.843 1.687,-0.683 3.58,-1.03 5.678,-1.042 1.386,0.013 2.643,0.171 3.773,0.477 1.129,0.305 2.126,0.684 2.988,1.136 0.863,0.452 1.587,0.904 2.173,1.356 0.586,0.452 1.028,0.831 1.326,1.136 0.299,0.305 0.449,0.464 0.449,0.477 l -2.639,4.382 c -0.005,-0.018 -0.194,-0.197 -0.565,-0.538 -0.373,-0.339 -0.896,-0.733 -1.57,-1.18 -0.675,-0.448 -1.469,-0.841 -2.383,-1.181 -0.913,-0.34 -1.915,-0.519 -3.003,-0.537 -1.031,0 -2.018,0.165 -2.962,0.493 -0.944,0.329 -1.788,0.82 -2.532,1.474 -0.745,0.653 -1.334,1.468 -1.766,2.444 -0.433,0.976 -0.653,2.111 -0.663,3.406 0.012,1.54 0.337,2.902 0.976,4.088 0.639,1.186 1.522,2.117 2.649,2.794 1.126,0.677 2.426,1.021 3.899,1.034 0.531,10e-4 1.075,-0.068 1.63,-0.207 0.555,-0.138 1.024,-0.354 1.408,-0.648 0.383,-0.294 0.583,-0.673 0.6,-1.137 v -1.394 h 5.577 v 2.988 c -0.011,0.873 -0.226,1.631 -0.643,2.276 -0.417,0.644 -0.968,1.187 -1.654,1.629 -0.685,0.442 -1.437,0.796 -2.254,1.063 -0.817,0.267 -1.631,0.46 -2.443,0.578 -0.811,0.119 -1.552,0.177 -2.221,0.175 -2.184,-0.013 -4.133,-0.369 -5.849,-1.068 -1.715,-0.699 -3.171,-1.662 -4.367,-2.888 -1.196,-1.226 -2.107,-2.637 -2.732,-4.232 -0.626,-1.595 -0.941,-3.295 -0.945,-5.101 z"
           marker-start="none"
           marker-end="none"
           id="path76"
           style="fill:#3772cb;fill-opacity:1" />
        <path
           d="m 364.626,386.112 c 0.012,-1.964 0.374,-3.756 1.085,-5.377 0.711,-1.62 1.7,-3.021 2.965,-4.202 1.266,-1.181 2.738,-2.093 4.414,-2.736 1.678,-0.644 3.487,-0.97 5.43,-0.978 1.956,0.008 3.775,0.334 5.458,0.978 1.683,0.643 3.16,1.555 4.429,2.736 1.269,1.181 2.259,2.582 2.971,4.202 0.711,1.621 1.073,3.413 1.085,5.377 -0.012,1.951 -0.374,3.736 -1.085,5.355 -0.712,1.619 -1.702,3.021 -2.971,4.206 -1.269,1.184 -2.746,2.1 -4.429,2.747 -1.683,0.648 -3.502,0.976 -5.458,0.984 -1.943,-0.008 -3.752,-0.336 -5.43,-0.984 -1.676,-0.647 -3.148,-1.563 -4.414,-2.747 -1.265,-1.185 -2.254,-2.587 -2.965,-4.206 -0.711,-1.619 -1.073,-3.404 -1.085,-5.355 z m 6.369,0 c 0.017,1.571 0.364,2.95 1.042,4.134 0.679,1.185 1.584,2.11 2.715,2.774 1.133,0.664 2.389,1.002 3.768,1.013 1.396,-0.011 2.663,-0.349 3.802,-1.013 1.139,-0.664 2.049,-1.589 2.728,-2.774 0.68,-1.184 1.028,-2.563 1.045,-4.134 -0.017,-1.588 -0.365,-2.974 -1.045,-4.157 -0.679,-1.183 -1.589,-2.104 -2.728,-2.762 -1.139,-0.658 -2.406,-0.992 -3.802,-1.002 -1.379,0.01 -2.635,0.344 -3.768,1.002 -1.131,0.658 -2.036,1.579 -2.715,2.762 -0.678,1.183 -1.025,2.569 -1.042,4.157 z"
           marker-start="none"
           marker-end="none"
           id="path78"
           style="fill:#3772cb;fill-opacity:1" />
        <path
           d="m 398.623,373.415 h 6.271 v 11.153 c 10e-4,0.572 0.036,1.122 0.106,1.65 0.069,0.528 0.167,1.042 0.293,1.539 0.267,1.09 0.678,2.077 1.233,2.96 0.555,0.884 1.243,1.587 2.063,2.11 0.821,0.524 1.763,0.792 2.828,0.804 0.998,-0.012 1.745,-0.248 2.24,-0.708 0.495,-0.46 0.822,-1.073 0.979,-1.838 0.158,-0.765 0.23,-1.609 0.216,-2.534 v -15.136 h 6.32 v 11.151 c -0.002,0.595 0.027,1.16 0.087,1.694 0.06,0.533 0.164,1.048 0.311,1.544 0.237,1.075 0.633,2.051 1.19,2.927 0.556,0.877 1.247,1.576 2.075,2.098 0.827,0.522 1.766,0.789 2.817,0.802 0.969,-0.009 1.707,-0.234 2.212,-0.675 0.506,-0.44 0.848,-1.042 1.027,-1.804 0.178,-0.762 0.262,-1.629 0.251,-2.601 v -11.753 c -0.009,-1.186 0.257,-2.048 0.796,-2.587 0.539,-0.539 1.401,-0.804 2.588,-0.796 h 5.973 v 5.323 h -1.942 c -0.351,0.002 -0.621,0.097 -0.809,0.286 -0.189,0.189 -0.285,0.459 -0.287,0.81 v 9.912 c -0.016,3.321 -0.742,5.765 -2.177,7.331 -1.435,1.566 -3.48,2.342 -6.136,2.327 -1.354,-0.014 -2.601,-0.263 -3.744,-0.747 -1.143,-0.483 -2.137,-1.119 -2.98,-1.907 -0.844,-0.788 -1.493,-1.645 -1.949,-2.571 h -0.099 c -0.549,1.72 -1.443,3.02 -2.681,3.9 -1.24,0.88 -2.818,1.322 -4.735,1.325 -1.333,-0.019 -2.545,-0.291 -3.635,-0.814 -1.09,-0.525 -2.025,-1.186 -2.804,-1.987 -0.781,-0.8 -1.373,-1.625 -1.776,-2.474 h -0.1 c 0.002,0.013 0.011,0.129 0.025,0.346 0.015,0.217 0.023,0.468 0.025,0.752 v 0.746 c 0.001,0.901 -0.275,1.598 -0.828,2.09 -0.552,0.491 -1.388,0.74 -2.507,0.746 h -5.824 v -5.372 h 1.992 c 0.35,10e-4 0.62,-0.088 0.809,-0.268 0.189,-0.179 0.284,-0.456 0.286,-0.828 z"
           marker-start="none"
           marker-end="none"
           id="path80"
           style="fill:#3772cb;fill-opacity:1" />
      </g>
    </g>
    <g
       id="g53"
       fill="#000000"
       fill-rule="nonzero"
       stroke-linejoin="round"
       stroke-linecap="round"
       stroke="none"
       stroke-width="2.719"
       stroke-miterlimit="79.8403"
       style="font-size:16px;font-family:'Times New Roman';font-variant-ligatures:none;fill:#000000;fill-opacity:0"
       transform="matrix(0.18725463,0,0,-0.18725463,-27.830131,91.557957)">
      <g
         id="g51"
         style="fill:#000000;fill-opacity:0">
        <path
           d="m 187.395,414.309 h -15.094 l -19.769,56.544 h 15.73 l 11.266,-39.751 9.992,34.649 c 1.134,3.403 3.401,5.103 6.802,5.102 v 0 h 11.053 z"
           marker-start="none"
           marker-end="none"
           id="path37"
           style="fill:#000000;fill-opacity:0" />
        <path
           d="m 217.376,470.853 h 7.652 c 1.985,10e-4 3.685,-0.708 5.102,-2.125 1.417,-1.417 2.126,-3.117 2.126,-5.102 v -49.317 h -14.88 z m 0,16.581 h 7.652 c 1.985,0 3.685,-0.709 5.102,-2.125 1.417,-1.418 2.126,-3.119 2.126,-5.102 v -4.464 h -14.88 z"
           marker-start="none"
           marker-end="none"
           id="path39"
           style="fill:#000000;fill-opacity:0" />
        <path
           d="m 264.15,414.309 c -4.677,-0.284 -9.742,-0.213 -15.199,0.213 -5.456,0.425 -8.184,3.897 -8.184,10.415 v 62.497 h 7.653 c 1.843,0 3.472,-0.709 4.889,-2.125 1.418,-1.418 2.125,-3.119 2.125,-5.102 v -9.566 h 8.716 v -2.976 c 0,-2.125 -0.707,-3.862 -2.125,-5.208 -1.417,-1.347 -3.117,-2.019 -5.102,-2.019 h -1.489 v -31.462 c 0,-2.409 1.418,-3.612 4.252,-3.612 h 4.464 z"
           marker-start="none"
           marker-end="none"
           id="path41"
           style="fill:#000000;fill-opacity:0" />
        <path
           d="m 271.599,414.309 v 27.422 c 0,5.527 0.815,10.168 2.444,13.924 1.63,3.755 3.863,6.766 6.697,9.033 2.694,2.126 5.847,3.686 9.46,4.677 3.614,0.994 7.334,1.489 11.16,1.488 0.284,10e-4 0.638,10e-4 1.063,0 0.424,10e-4 0.778,10e-4 1.062,0 v -15.092 h -4.89 c -4.108,0 -7.154,-0.993 -9.139,-2.977 -1.983,-1.984 -2.976,-5.101 -2.976,-9.352 v -29.123 z"
           marker-start="none"
           marker-end="none"
           id="path43"
           style="fill:#000000;fill-opacity:0" />
        <path
           d="m 312.422,470.853 h 7.652 c 1.985,10e-4 3.685,-0.708 5.102,-2.125 1.417,-1.417 2.126,-3.117 2.126,-5.102 v -49.317 h -14.88 z m 0,16.581 h 7.652 c 1.985,0 3.685,-0.709 5.102,-2.125 1.417,-1.418 2.126,-3.119 2.126,-5.102 v -4.464 h -14.88 z"
           marker-start="none"
           marker-end="none"
           id="path45"
           style="fill:#000000;fill-opacity:0" />
        <path
           d="m 383.429,414.309 h -7.44 c -2.126,0 -3.861,0.673 -5.208,2.02 -1.347,1.345 -2.019,3.082 -2.019,5.207 v 0 28.91 c 0,3.403 -1.028,5.882 -3.083,7.44 -2.054,1.559 -4.356,2.339 -6.908,2.339 -2.55,0 -4.817,-0.78 -6.802,-2.339 -1.983,-1.558 -2.976,-4.037 -2.976,-7.44 v -36.137 h -14.881 v 33.162 c 0,9.637 2.515,16.084 7.546,19.343 5.031,3.26 10.594,5.032 16.687,5.315 6.237,0 11.977,-1.63 17.219,-4.889 5.244,-3.259 7.865,-9.848 7.865,-19.769 z"
           marker-start="none"
           marker-end="none"
           id="path47"
           style="fill:#000000;fill-opacity:0" />
        <path
           d="m 431.267,431.74 h 10.628 c -1.559,-5.952 -4.535,-10.487 -8.928,-13.605 -4.393,-3.259 -9.919,-4.889 -16.581,-4.889 -8.076,0 -14.383,2.621 -18.919,7.865 -4.535,5.102 -6.803,12.4 -6.803,21.895 0,9.069 2.197,16.156 6.591,21.258 4.535,5.244 10.841,7.865 18.918,7.865 8.504,0 15.094,-2.55 19.769,-7.652 4.535,-5.244 6.802,-12.544 6.802,-21.896 0,-0.567 0,-1.063 0,-1.488 0,-0.426 0,-0.708 0,-0.851 0,-0.707 -0.071,-1.203 -0.211,-1.487 h -36.775 c 0.142,-4.393 1.205,-7.653 3.188,-9.779 1.843,-2.267 4.606,-3.401 8.29,-3.401 2.409,0 4.465,0.497 6.166,1.489 0.424,0.142 0.813,0.39 1.168,0.744 0.354,0.355 0.744,0.744 1.169,1.168 0.142,0.425 0.674,0.992 1.594,1.701 0.922,0.709 2.233,1.064 3.934,1.063 z m -25.509,16.581 h 21.681 c -0.283,3.826 -1.274,6.66 -2.975,8.502 -1.842,1.985 -4.464,2.977 -7.865,2.977 -3.117,0 -5.668,-0.992 -7.653,-2.977 -1.983,-1.983 -3.046,-4.817 -3.188,-8.502 z"
           marker-start="none"
           marker-end="none"
           id="path49"
           style="fill:#000000;fill-opacity:0" />
      </g>
    </g>
  </g>
</svg>
